# This file uses centimeters as units for non-parametric coordinates.

mtllib Crate_low.mtl
g default
v 37.405380 74.851303 -37.051258
v 37.741795 73.920433 37.107727
v 37.117527 -0.985630 37.737736
v 37.600883 -0.588740 -37.447918
v -36.984512 74.337029 37.792835
v -36.044044 -1.132595 37.721699
v -36.552631 74.851303 -37.961063
v -36.216179 -1.132595 -37.602962
v 36.111176 74.794380 37.991951
v 35.785328 74.851303 -37.071190
v 35.990269 -1.132595 -37.986740
v 35.516228 -1.132595 37.881428
v 37.436825 74.851303 -35.402077
v 35.792656 74.851303 -35.402081
v -36.573769 74.851303 -36.276577
v -36.212353 -1.132595 -35.928043
v 35.979729 -1.132595 -36.299698
v 37.991951 -0.904121 -35.776054
v 37.296589 -1.132595 36.390671
v 35.524723 -1.132595 36.521538
v -36.047131 -1.132595 36.371517
v -37.489532 74.851303 36.436077
v 36.115734 74.851303 36.646706
v 37.991951 74.110245 35.780087
v -34.381485 74.851303 -37.934357
v -34.401764 74.851303 -36.250328
v -35.280354 74.851303 36.442398
v -34.791561 74.495415 37.991951
v -33.896236 -1.132595 37.726490
v -33.898975 -1.132595 36.376019
v -34.045586 -1.132595 -35.939198
v -34.048981 -1.132595 -37.614479
vt 0.319062 0.331617
vt 0.010365 0.328287
vt 0.007817 0.001974
vt 0.320789 0.003088
vt 0.004508 0.327452
vt 0.001923 0.002603
vt 0.328232 0.004472
vt 0.326215 0.331624
vt 0.656796 0.002057
vt 0.657028 0.331610
vt 0.341695 0.331523
vt 0.343278 0.002026
vt 0.662650 0.002051
vt 0.663292 0.329339
vt 0.334390 0.331521
vt 0.336015 0.002024
vt 0.607242 0.654697
vt 0.302945 0.656400
vt 0.301160 0.341210
vt 0.610703 0.342401
vt 0.302985 0.663701
vt 0.607160 0.661933
vt 0.291582 0.341187
vt 0.293529 0.656455
vt 0.303337 0.334331
vt 0.610735 0.336564
vt 0.619422 0.346206
vt 0.614370 0.654752
vt 0.293574 0.663758
vt 0.614182 0.661898
vt 0.293794 0.334912
vt 0.618800 0.340320
vt 0.643946 0.991809
vt 0.342788 0.991521
vt 0.341804 0.677889
vt 0.645529 0.675884
vt 0.643907 0.997708
vt 0.342805 0.997379
vt 0.333470 0.991512
vt 0.332406 0.677952
vt 0.341770 0.670623
vt 0.645526 0.668565
vt 0.651631 0.991236
vt 0.654316 0.678187
vt 0.333489 0.997368
vt 0.650874 0.997108
vt 0.332372 0.670690
vt 0.652896 0.670787
vt 0.318570 0.998024
vt 0.011250 0.996438
vt 0.015439 0.668637
vt 0.316302 0.668923
vt 0.001707 0.995739
vt 0.006130 0.668628
vt 0.323271 0.669552
vt 0.326607 0.994230
vt 0.634972 0.665208
vt 0.632931 0.335707
vt 0.937230 0.335169
vt 0.938699 0.664692
vt 0.625574 0.665226
vt 0.623515 0.335723
vt 0.946051 0.662292
vt 0.944256 0.335148
vn 0.998994 0.044610 -0.004692
vn 0.998889 0.047077 -0.002113
vn 0.998558 -0.053267 0.006652
vn 0.010359 0.036380 0.999284
vn -0.003730 0.041758 0.999121
vn 0.012006 -0.036994 0.999243
vn -0.997745 -0.066932 -0.004963
vn -0.998991 0.044923 0.000224
vn -0.998590 0.051664 -0.012247
vn 0.003078 -0.039027 -0.999233
vn 0.011777 0.038758 -0.999179
vn 0.011276 0.047282 -0.998818
vn 0.009393 0.999956 0.000172
vn 0.000000 1.000000 -0.000000
vn -0.000137 0.999989 0.004684
vn 0.002894 -0.999996 -0.000002
vn 0.000000 -1.000000 -0.000000
vn 0.000000 -1.000000 -0.000000
vn 0.007652 0.999955 0.005609
vn 0.709649 -0.007138 -0.704519
vn 0.001195 -0.031343 -0.999508
vn 0.727649 0.022700 -0.685574
vn 0.002834 -0.999996 -0.000196
vn 0.998787 -0.049073 0.004146
vn 0.709397 -0.015591 0.704637
vn 0.680175 0.009721 0.732985
vn -0.608910 0.011250 -0.793159
vn -0.608898 -0.023712 -0.792894
vn -0.004818 -0.038097 0.999262
vn -0.997178 -0.074555 0.008816
vn -0.513497 -0.023282 0.857776
vn -0.564824 0.006231 0.825188
s 1
g WoodenCrate_low
usemtl lambert2SG
f 13/1/1 24/2/2 19/3/3
f 9/49/4 28/50/5 12/52/6
f 16/12/7 22/10/8 15/11/9
f 32/57/10 25/58/11 10/59/12
f 14/17/13 26/18/14 27/19/15
f 20/33/16 30/34/17 31/35/18
f 23/20/19 24/27/2 13/28/1 14/17/13
f 4/63/20 11/60/21 10/59/12 1/64/22
f 19/43/3 20/33/16 17/36/23 18/44/24
f 12/52/6 3/55/25 2/56/26 9/49/4
f 10/22/12 14/17/13 13/28/1 1/30/22
f 25/21/11 26/18/14 14/17/13 10/22/12
f 7/15/27 8/16/28 16/12/7 15/11/9
f 31/35/18 32/41/10 11/42/21 17/36/23
f 4/48/20 18/44/24 17/36/23 11/42/21
f 18/4/24 4/7/20 1/8/22 13/1/1
f 20/33/16 19/43/3 3/46/25 12/37/6
f 12/37/6 29/38/29 30/34/17 20/33/16
f 21/9/30 6/13/31 5/14/32 22/10/8
f 27/19/15 28/25/5 9/26/4 23/20/19
f 24/27/2 23/20/19 9/26/4 2/32/26
f 2/5/26 3/6/25 19/3/3 24/2/2
f 7/29/27 15/24/9 26/18/14 25/21/11
f 22/23/8 27/19/15 26/18/14 15/24/9
f 28/25/5 27/19/15 22/23/8 5/31/32
f 5/53/32 6/54/31 29/51/29 28/50/5
f 21/39/30 30/34/17 29/38/29 6/45/31
f 30/34/17 21/39/30 16/40/7 31/35/18
f 32/41/10 31/35/18 16/40/7 8/47/28
f 32/57/10 8/61/28 7/62/27 25/58/11
f 14/17/13 27/19/15 23/20/19
f 21/9/30 22/10/8 16/12/7
f 12/52/6 28/50/5 29/51/29
f 13/1/1 19/3/3 18/4/24
f 32/57/10 10/59/12 11/60/21
f 20/33/16 31/35/18 17/36/23
